<?xml version="1.0" standalone="no"?>
<!DOCTYPE svg PUBLIC "-//W3C//DTD SVG 1.1//EN" "http://www.w3.org/Graphics/SVG/1.1/DTD/svg11.dtd" >
<svg xmlns="http://www.w3.org/2000/svg">
<metadata>
This is a custom SVG webfont generated by Font Squirrel.
Copyright   :  1990 2002 Adobe Systems Incorporated All rights reserved  1989 1990 2002 The Monotype Corporation Plc All rights reserved
Designer    : Unknown
Foundry URL : httpwwwadobecomtype
</metadata>
<defs>
<font id="RockwellStdRegular" horiz-adv-x="1173" >
<font-face units-per-em="2048" ascent="1391" descent="-657" />
<missing-glyph horiz-adv-x="512" />
<glyph unicode=" "  horiz-adv-x="512" />
<glyph unicode="&#x09;" horiz-adv-x="512" />
<glyph unicode="&#xa0;" horiz-adv-x="512" />
<glyph unicode="!" horiz-adv-x="598" d="M176 0v246h246v-246h-246zM199 967v424h200v-424l-49 -590h-102z" />
<glyph unicode="&#x22;" horiz-adv-x="831" d="M127 1151v240h164v-240l-29 -283h-106zM541 1151v240h164v-240l-29 -283h-107z" />
<glyph unicode="#" horiz-adv-x="1368" d="M86 383v139h217l72 352h-289v140h320l81 399h148l-82 -399h397l82 399h148l-82 -399h184v-140h-217l-70 -352h287v-139h-317l-84 -399h-146l82 399h-397l-84 -399h-146l82 399h-186zM449 522h399l72 352h-400z" />
<glyph unicode="$" horiz-adv-x="1110" d="M61 420h183q10 -129 62 -194.5t163 -84.5v461q-381 76 -381 385q0 170 100.5 273.5t280.5 119.5v84h152v-84q170 -18 261 -128.5t74 -311.5h-174q0 125 -36.5 189.5t-124.5 84.5v-444q203 -39 302 -123t99 -254q0 -178 -104.5 -285.5t-296.5 -127.5v-156h-152v156 q-180 12 -296 122.5t-112 317.5zM291 1016q0 -84 41 -133t137 -80v420q-84 -16 -131 -69.5t-47 -137.5zM621 143q215 39 215 224q0 88 -48.5 133t-166.5 69v-426z" />
<glyph unicode="%" horiz-adv-x="1984" d="M139 1049q0 166 79 264t212 98t212 -98.5t79 -263.5q0 -164 -79 -262.5t-212 -98.5t-212 98.5t-79 262.5zM301 1048.5q0 -235.5 129 -235.5t129 235.5t-129 235.5t-129 -235.5zM369 0l1104 1391h141l-1096 -1391h-149zM1264 330q0 166 78.5 264t212 98t212 -98t78.5 -264 q0 -164 -78.5 -262.5t-212 -98.5t-212 98.5t-78.5 262.5zM1425 329.5q0 -235.5 129 -235.5t129 235.5t-129 235.5t-129 -235.5z" />
<glyph unicode="&#x26;" horiz-adv-x="1386" d="M63 446q0 276 316 418q-94 125 -94 242q0 129 97 218t241 89q139 0 235 -86t96 -211q0 -104 -67.5 -182t-222.5 -135l282 -383q78 137 109 319h284v-170h-147q-51 -188 -137 -297l73 -94h211v-174h-317l-92 123q-184 -145 -369 -146q-213 0 -355.5 134t-142.5 335z M276 457q0 -125 91.5 -215t216.5 -90q133 0 239 110l-338 473q-209 -96 -209 -278zM479 1112q0 -59 84 -182q113 49 158 91t45 99q0 59 -39 92t-102 33q-66 0 -106 -35t-40 -98z" />
<glyph unicode="'" horiz-adv-x="362" d="M100 1151v240h164v-240l-28 -283h-107z" />
<glyph unicode="(" horiz-adv-x="768" d="M166 485q0 338 145.5 574.5t399.5 357.5v-155q-121 -78 -193 -170.5t-110.5 -241t-38.5 -365.5t38.5 -365.5t110.5 -240.5t193 -170v-155q-254 121 -399.5 357t-145.5 574z" />
<glyph unicode=")" horiz-adv-x="768" d="M57 -291q121 78 193 170t110.5 240.5t38.5 365.5t-38.5 365.5t-110.5 241t-193 170.5v155q254 -121 399.5 -357.5t145.5 -574.5t-145.5 -574.5t-399.5 -356.5v155z" />
<glyph unicode="*" horiz-adv-x="1067" d="M70 1010l53 176l168 -53q66 -82 215 -136q-10 137 -64 246v170h181v-170q-53 -109 -64 -246q150 53 215 136l168 53l53 -176l-161 -56q-88 20 -246 -16q109 -129 186 -158l103 -141l-150 -107l-104 142q-4 49 -30 119.5t-61 111.5q-35 -41 -60.5 -111.5t-29.5 -119.5 l-104 -142l-150 107l103 141q78 29 186 158q-158 37 -246 16z" />
<glyph unicode="+" horiz-adv-x="1366" d="M135 590v158h469v469h158v-469h469v-158h-469v-469h-158v469h-469z" />
<glyph unicode="," horiz-adv-x="598" d="M176 0v246h246v-246q0 -139 -56.5 -206.5t-189.5 -69.5v102q68 16 95.5 54t27.5 120h-123z" />
<glyph unicode="-" horiz-adv-x="724" d="M63 395v168h601v-168h-601z" />
<glyph unicode="." horiz-adv-x="598" d="M176 0v246h246v-246h-246z" />
<glyph unicode="/" horiz-adv-x="897" d="M10 -29l711 1420h166l-711 -1420h-166z" />
<glyph unicode="0" horiz-adv-x="1110" d="M72 696q0 338 127 527.5t356 189.5q227 0 354 -189.5t127 -527.5q0 -340 -127 -529.5t-354 -189.5q-229 0 -356 189.5t-127 529.5zM270 696q0 -557 283 -557q285 0 285 557q0 293 -73 424t-212 131q-283 0 -283 -555z" />
<glyph unicode="1" horiz-adv-x="1110" d="M295 0v168h190v1055h-190v168h383v-1223h178v-168h-561z" />
<glyph unicode="2" horiz-adv-x="1110" d="M82 0q0 313 229 543q74 74 204 166t190.5 160.5t60.5 162.5q0 100 -61.5 159.5t-163.5 59.5q-139 0 -189.5 -86t-50.5 -293h-184q-23 268 97 404.5t325 136.5q115 0 202.5 -35t136 -92t71 -120.5t22.5 -129.5q0 -162 -127 -288q-55 -55 -157 -130l-176 -126 q-75 -53 -142.5 -137.5t-85.5 -176.5h522l10 320h168l-12 -498h-889z" />
<glyph unicode="3" horiz-adv-x="1110" d="M66 471h182q6 -158 86 -245t221 -87q121 0 194.5 67.5t73.5 178.5q0 121 -90 188.5t-229 67.5h-88v172h84q270 0 270 211q0 102 -59.5 164.5t-157.5 62.5q-231 0 -231 -280h-193q-8 203 101.5 322.5t302 119.5t309 -94t116.5 -270q0 -104 -53 -189.5t-143 -126.5 q260 -82 260 -336q0 -190 -131 -305t-350 -115q-217 0 -349 123t-126 371z" />
<glyph unicode="4" horiz-adv-x="1110" d="M59 530l578 873h162v-862h223v-168h-223v-205h127v-168h-457v168h145v205h-464q-25 91 -91 157zM252 541h362v549h-4z" />
<glyph unicode="5" horiz-adv-x="1110" d="M72 444h180q18 -145 94 -225t197 -80q125 0 201.5 84t76.5 221q0 133 -70.5 213t-187.5 80q-166 0 -280 -166q-61 61 -146 103l60 717h741v-371h-172v192h-426l-31 -409q55 47 133 78q70 25 150 24q190 0 309 -127t119 -332q0 -203 -123 -336t-354 -133q-213 0 -335 120 t-136 347z" />
<glyph unicode="6" horiz-adv-x="1110" d="M100 688q0 342 129 533.5t361 191.5q176 0 283.5 -116.5t113.5 -315.5h-170q-16 125 -83.5 197.5t-166.5 72.5q-96 0 -161.5 -75.5t-93 -188.5t-27.5 -256q139 156 325 156q168 0 277.5 -123t109.5 -311q0 -209 -116.5 -342.5t-300.5 -133.5q-225 0 -352.5 188.5 t-127.5 522.5zM293 522q23 -193 90.5 -285t185.5 -92q111 0 180.5 82t69.5 211q0 121 -62.5 192.5t-168.5 71.5q-148 0 -295 -180z" />
<glyph unicode="7" horiz-adv-x="1110" d="M121 1024v367h868v-136q-156 -217 -267.5 -527t-111.5 -560h162v-168h-549v168h185q14 260 112 534.5t250 509.5h-477v-188h-172z" />
<glyph unicode="8" horiz-adv-x="1110" d="M68 383q0 248 247 344q-205 121 -204 322q0 164 119.5 264t318.5 100q207 0 327.5 -98t120.5 -266q0 -201 -202 -322q246 -96 245 -344q0 -186 -129 -296t-346 -110q-250 0 -373.5 115t-123.5 291zM272 391.5q0 -112.5 78 -182.5t205 -70q125 0 203 70t78 182 q0 117 -78 184.5t-211 67.5q-123 0 -199 -69.5t-76 -182zM299 1028q0 -102 68.5 -162.5t187.5 -60.5t186.5 60.5t67.5 165t-67.5 160.5t-192.5 56q-117 0 -183.5 -58.5t-66.5 -160.5z" />
<glyph unicode="9" horiz-adv-x="1110" d="M94 938q0 209 118 342t302 133q225 0 351 -186.5t126 -521.5q0 -342 -129 -535t-360 -193q-176 0 -283.5 117t-114.5 318h170q16 -125 84 -199t166 -74q121 0 202 128t81 395q-139 -156 -326 -156q-168 0 -277.5 123t-109.5 309zM272 952q0 -119 63.5 -190.5t168.5 -71.5 q147 0 295 180q-23 193 -90.5 284t-186.5 91q-111 0 -180.5 -82t-69.5 -211z" />
<glyph unicode=":" horiz-adv-x="598" d="M176 0v246h246v-246h-246zM176 721v246h246v-246h-246z" />
<glyph unicode=";" horiz-adv-x="598" d="M176 0v246h246v-246q0 -139 -56.5 -206.5t-189.5 -69.5v102q68 16 95.5 54t27.5 120h-123zM176 721v246h246v-246h-246z" />
<glyph unicode="&#x3c;" horiz-adv-x="1366" d="M135 596v143l1096 461v-172l-883 -360l883 -361v-170z" />
<glyph unicode="=" horiz-adv-x="1366" d="M135 354v158h1096v-158h-1096zM135 827v158h1096v-158h-1096z" />
<glyph unicode="&#x3e;" horiz-adv-x="1366" d="M135 137v170l883 361l-883 360v170l1096 -459v-143z" />
<glyph unicode="?" horiz-adv-x="960" d="M59 967q-10 125 26 217t102.5 139t137 68.5t144.5 21.5q197 0 310.5 -105.5t113.5 -287.5q0 -156 -99.5 -268.5t-287.5 -106.5l-25 -270h-102l-25 434l15 6q135 -23 231 30.5t96 184.5q0 100 -59 160.5t-162 60.5q-117 0 -176 -71.5t-51 -212.5h-189zM305 0v246h246v-246 h-246z" />
<glyph unicode="@" horiz-adv-x="2068" d="M111 469q0 129 30.5 263t104 273.5t183.5 246t284 175t389 68.5q385 0 619.5 -228.5t234.5 -553.5q0 -270 -181.5 -493.5t-422.5 -223.5q-190 0 -191 166q-141 -164 -305 -164q-156 0 -260 128t-104 320q0 242 160.5 439.5t359.5 197.5q190 0 301 -184l35 156h180 l-174 -805q-8 -35 14.5 -60.5t52.5 -25.5q37 0 98.5 36t128 100.5t113.5 176t47 240.5q0 270 -203.5 449.5t-510.5 179.5q-360 0 -598 -245t-238 -618q0 -354 220 -560t642 -206q485 0 705 301h186q-143 -217 -356 -332.5t-533 -115.5q-252 0 -447.5 68.5t-317 191.5 t-184 284.5t-62.5 354.5zM680 430q0 -121 61.5 -203t153.5 -82q139 0 249.5 156t110.5 348q0 129 -63.5 208t-165.5 79q-84 0 -153.5 -55.5t-109.5 -138.5t-61.5 -164.5t-21.5 -147.5z" />
<glyph unicode="A" horiz-adv-x="1429" d="M-16 0v174h168l380 1061h-163v156h710v-156h-164l375 -1061h156v-174h-545v174h172l-102 315h-500l-109 -315h170v-174h-548zM522 651h396l-185 584h-18z" />
<glyph unicode="B" horiz-adv-x="1193" d="M47 0v174h170v1043h-170v174h563q217 0 321.5 -103.5t104.5 -255.5q0 -211 -172 -295q115 -39 178.5 -129t63.5 -213q0 -53 -12.5 -103t-47 -104.5t-90 -94.5t-149.5 -66.5t-215 -26.5h-545zM426 174h164q158 0 229.5 59.5t71.5 176.5q0 227 -297 227h-168v-463zM426 811 h156q242 0 241 207q0 102 -64.5 150.5t-201.5 48.5h-131v-406z" />
<glyph unicode="C" horiz-adv-x="1556" d="M88 694q0 324 189.5 521.5t502.5 197.5q270 0 459 -149v127h180v-447h-180q-59 131 -180 208t-268 77q-207 0 -340.5 -148.5t-133.5 -380.5q0 -227 138.5 -380.5t343.5 -153.5q154 0 291 103.5t186 295.5l182 -100q-61 -227 -241.5 -357.5t-432.5 -130.5 q-309 0 -502.5 200t-193.5 517z" />
<glyph unicode="D" horiz-adv-x="1492" d="M27 0v174h188v1043h-188v174h653q195 0 337 -58.5t220 -159t115 -216t37 -248.5q0 -344 -180.5 -526.5t-546.5 -182.5h-635zM424 174h246q506 0 506 528q0 236 -124 375.5t-378 139.5h-250v-1043z" />
<glyph unicode="E" horiz-adv-x="1280" d="M57 0v174h181v1043h-181v174h1153v-418h-172v244h-592v-414h517v-174h-517v-455h592v254h172v-428h-1153z" />
<glyph unicode="F" horiz-adv-x="1130" d="M37 0v174h176v1043h-176v174h1079v-418h-172v244h-522v-412h450v-174h-450v-457h180v-174h-565z" />
<glyph unicode="G" horiz-adv-x="1642" d="M96 700q0 127 40 249t120 228.5t220 171t323 64.5q279 0 487 -176v154h178v-457h-178q-59 133 -188 214t-281 81q-217 0 -354 -147.5t-137 -383.5q0 -233 144 -384.5t368 -151.5q174 0 299 94t149 242h-252v174h508v-24q0 -167 -53 -298q-57 -139 -160.5 -218 t-227.5 -118t-265 -39q-170 0 -303.5 50.5t-213 126t-132 176t-72 191.5t-19.5 181z" />
<glyph unicode="H" horiz-adv-x="1449" d="M55 0v174h158v1043h-158v174h531v-174h-164v-398h608v398h-164v174h531v-174h-158v-1043h158v-174h-531v174h164v471h-608v-471h164v-174h-531z" />
<glyph unicode="I" horiz-adv-x="641" d="M63 0v174h152v1043h-152v174h512v-174h-151v-1043h151v-174h-512z" />
<glyph unicode="J" horiz-adv-x="641" d="M-72 -219q80 -18 152 -19q147 0 147 177v1278h-178v174h565v-174h-178v-1319q0 -96 -34.5 -166t-90 -105t-111 -49t-110.5 -14q-84 0 -162 22v195z" />
<glyph unicode="K" horiz-adv-x="1280" d="M37 0v174h174v1043h-174v174h563v-174h-180v-1043h160v-174h-543zM430 735l444 482h-159v174h545v-174h-148l-426 -482l438 -561h150v-174h-565v174h149z" />
<glyph unicode="L" horiz-adv-x="1067" d="M29 0v174h184v1043h-184v174h569v-174h-176v-1043h434v473h193v-647h-1020z" />
<glyph unicode="M" horiz-adv-x="1792" d="M49 0v174h170v1043h-170v174h479l363 -953l366 953h486v-174h-168v-1043h168v-174h-510v174h149v1045h-4l-473 -1233h-41l-469 1231h-4v-1043h150v-174h-492z" />
<glyph unicode="N" horiz-adv-x="1472" d="M8 0v174h199v1043h-199v174h475l602 -1082h5v908h-195v174h571v-174h-204v-1231h-220l-659 1188h-4v-1000h201v-174h-572z" />
<glyph unicode="O" horiz-adv-x="1642" d="M102 694.5q0 315.5 203 517t516.5 201.5t516 -202.5t202.5 -516t-202.5 -515.5t-516.5 -202q-315 0 -517 201t-202 516.5zM332 694.5q0 -225.5 141 -379t348 -153.5t348.5 153.5t141.5 379t-141.5 380t-348.5 154.5t-348 -154.5t-141 -380z" />
<glyph unicode="P" d="M41 0v174h174v1043h-174v174h616q111 0 196 -29t135 -72t81 -102.5t42 -113.5t11 -113q0 -193 -116 -310q-68 -68 -167.5 -93.5t-258.5 -25.5h-156v-358h182v-174h-565zM424 700h174q178 0 244.5 70t66.5 192.5t-64.5 188.5t-180.5 66h-240v-517z" />
<glyph unicode="Q" horiz-adv-x="1642" d="M102 700q0 311 202 512t513 201q317 0 520 -200.5t203 -514.5q0 -162 -58.5 -299t-151.5 -223t-200.5 -136t-214.5 -54v-2q189 -84 300 -84q38 0 67 10l-74 -172q-29 -6 -58 -6q-60 0 -126 24q-98 37 -200.5 84t-180.5 47q-86 0 -141 -49l-62 86q63 63 156 82v4 q-227 66 -360.5 257t-133.5 433zM332 698.5q0 -231.5 138 -385t347 -153.5t351.5 155.5t142.5 383t-142.5 379t-355.5 151.5q-211 0 -346 -149.5t-135 -381z" />
<glyph unicode="R" horiz-adv-x="1236" d="M27 0v174h190v1043h-190v174h643q225 0 333.5 -97.5t108.5 -265.5q0 -133 -73.5 -223t-213.5 -125l246 -506h170v-174h-301l-315 651h-199v-477h180v-174h-579zM426 825h236q238 0 237 203q0 90 -58.5 139.5t-160.5 49.5h-254v-392z" />
<glyph unicode="S" horiz-adv-x="1087" d="M66 1032q0 182 117.5 281.5t287.5 99.5q168 0 311 -108v92h172v-420h-172v96q-111 162 -295 162q-106 0 -169.5 -49t-63.5 -129q0 -72 47 -119q43 -43 161 -72.5t246 -69.5t197 -110q119 -119 119 -299q0 -176 -126 -293t-314 -117q-193 0 -342 138v-115h-172v504h172 v-123q135 -229 323 -229q106 0 176 66.5t70 166.5q0 76 -46 124t-123 71.5t-160 44t-174 58.5t-150 97q-92 92 -92 252z" />
<glyph unicode="T" d="M23 862v529h1126v-529h-172v355h-287v-1043h182v-174h-573v174h182v1043h-286v-355h-172z" />
<glyph unicode="U" horiz-adv-x="1386" d="M27 1217v174h544v-174h-161v-805q0 -266 278 -267q154 0 221.5 68t67.5 215v789h-162v174h545v-174h-174v-801q0 -127 -43 -218.5t-117 -136.5t-151.5 -64.5t-169.5 -19.5q-279 0 -391.5 120t-112.5 321v799h-174z" />
<glyph unicode="V" horiz-adv-x="1449" d="M-4 1217v174h549v-174h-162l354 -934l346 934h-161v174h534v-174h-170l-459 -1231h-194l-465 1231h-172z" />
<glyph unicode="W" horiz-adv-x="2048" d="M0 1217v174h532v-174h-165l260 -910h4l250 910h-166v174h639v-174h-164l254 -910h4l256 910h-166v174h510v-174h-164l-346 -1231h-199l-311 1099h-4l-309 -1099h-193l-354 1231h-168z" />
<glyph unicode="X" horiz-adv-x="1343" d="M20 0v174h189l352 526l-352 517h-180v174h559v-174h-156l240 -353l243 353h-161v174h534v-174h-174l-342 -498l373 -545h180v-174h-571v174h161l-253 377l-254 -377h167v-174h-555z" />
<glyph unicode="Y" horiz-adv-x="1323" d="M-20 1217v174h571v-174h-174l305 -429l281 429h-175v174h555v-174h-184l-387 -584v-459h191v-174h-586v174h186v459l-413 584h-170z" />
<glyph unicode="Z" horiz-adv-x="1153" d="M51 0v174l746 1043h-541v-244h-172v418h979v-154l-760 -1063h610v268h172v-442h-1034z" />
<glyph unicode="[" horiz-adv-x="768" d="M215 -418v1811h494v-146h-301v-1519h301v-146h-494z" />
<glyph unicode="\" horiz-adv-x="897" d="M10 1391h166l711 -1420h-166z" />
<glyph unicode="]" horiz-adv-x="768" d="M59 -272h301v1519h-301v146h494v-1811h-494v146z" />
<glyph unicode="^" horiz-adv-x="960" d="M-14 674l432 717h131l426 -717h-176l-316 530l-321 -530h-176z" />
<glyph unicode="_" horiz-adv-x="1024" d="M-12 -154h1048v-102h-1048v102z" />
<glyph unicode="`" horiz-adv-x="681" d="M111 1413h276l141 -317h-129z" />
<glyph unicode="a" horiz-adv-x="1087" d="M90 291q0 133 101.5 223t250.5 90q139 0 265 -82v127q0 96 -60.5 141.5t-154.5 45.5q-141 0 -207 -115l-183 49q123 225 418 225q199 0 289 -84t90 -213v-530h166v-168h-336v119q-166 -135 -311 -135q-137 0 -232.5 89t-95.5 218zM272 291q0 -70 48.5 -115t125.5 -45 q135 0 261 115v114q-125 96 -250 97q-80 0 -132.5 -47t-52.5 -119z" />
<glyph unicode="b" horiz-adv-x="1323" d="M51 0v168h172v1055h-168v168h359v-560q150 164 352 164q205 0 338 -141t133 -360q0 -221 -134 -365.5t-339 -144.5q-106 0 -200.5 44t-145.5 117h-4v-145h-363zM420 481q0 -141 86 -235t217 -94q133 0 221 98t88 248q0 162 -94 242.5t-211 80.5q-135 0 -221 -95t-86 -245 z" />
<glyph unicode="c" horiz-adv-x="1067" d="M72 492q0 209 138 356t337 147q162 0 272 -94v66h172v-365h-172q-16 102 -84 162q-68 57 -172 57q-129 0 -208 -91t-79 -236q0 -156 82 -252.5t213 -96.5q203 0 291 191l158 -74q-129 -291 -455 -291q-160 0 -275.5 81t-166.5 196t-51 244z" />
<glyph unicode="d" horiz-adv-x="1280" d="M88 479q0 219 137 367.5t342 148.5q195 0 340 -155v383h-184v168h377v-1223h176v-168h-369v143q-147 -160 -344 -159q-186 0 -330.5 127.5t-144.5 367.5zM293 485q0 -150 85 -241.5t220 -91.5t222 97t87 245q0 145 -86 236t-225 91q-129 0 -216 -96.5t-87 -239.5z" />
<glyph unicode="e" d="M74 483q0 225 154.5 368.5t353.5 143.5q213 0 364.5 -151.5t151.5 -407.5h-813q20 -141 108 -219t223 -78q203 0 314 158l168 -74q-78 -121 -204 -186.5t-282 -65.5q-236 0 -387 144.5t-151 367.5zM291 575h612q-23 115 -113 191t-204 76q-113 0 -192.5 -73t-102.5 -194z " />
<glyph unicode="f" horiz-adv-x="598" d="M68 799v168h141v174q0 137 73.5 207.5t184.5 70.5q102 0 167.5 -58t82.5 -165l-168 -27q-8 94 -74 95q-74 0 -74 -105v-192h164v-168h-164v-631h187v-168h-516v168h137v631h-141z" />
<glyph unicode="g" horiz-adv-x="1280" d="M72 469q0 217 138 365.5t341 148.5q190 0 342 -154v138h364v-168h-174v-807q0 -123 -49 -215t-130 -140.5t-166 -71t-173 -22.5q-205 0 -381 129l123 140q125 -100 275 -101q49 0 99 13.5t100 43t81 86t31 132.5v145h-4q-57 -72 -151.5 -116t-194.5 -44 q-205 0 -338 141.5t-133 356.5zM276 473q0 -147 85 -240.5t219 -93.5q135 0 225 95.5t90 238.5q0 141 -89 236.5t-222 95.5t-220.5 -94.5t-87.5 -237.5z" />
<glyph unicode="h" d="M41 0v168h176v1055h-174v168h367v-535q172 139 321 139q266 0 266 -293v-534h166v-168h-358v662q0 164 -119 163q-109 0 -276 -127v-530h165v-168h-534z" />
<glyph unicode="i" horiz-adv-x="598" d="M49 0v168h154v631h-154v168h346v-799h154v-168h-500zM180 1296q0 47 34 81t81 34t81 -34t34 -81t-34 -80.5t-81 -33.5t-81 33.5t-34 80.5z" />
<glyph unicode="j" horiz-adv-x="598" d="M-37 -252q51 -8 94 -8q96 0 133 46t37 153v860h-149v168h342v-961q0 -84 -4 -134t-22.5 -115.5t-53.5 -102.5t-102.5 -62.5t-163.5 -25.5q-61 0 -111 10v172zM203 1296q0 47 33.5 81t81 34t81 -34t33.5 -81t-33.5 -80.5t-81 -33.5t-81 33.5t-33.5 80.5z" />
<glyph unicode="k" d="M47 0v168h176v1055h-174v168h367v-869l362 285v4h-162v156h537v-156h-149l-363 -301l342 -342h166v-168h-246l-487 487v-319h143v-168h-512z" />
<glyph unicode="l" horiz-adv-x="598" d="M49 0v168h176v1055h-172v168h365v-1223h149v-168h-518z" />
<glyph unicode="m" horiz-adv-x="1771" d="M57 0v168h176v631h-161v168h354v-121q172 137 328 137q170 0 233 -152q195 152 348 152q121 0 189.5 -70.5t68.5 -195.5v-549h166v-168h-358v674q0 141 -117 141q-121 0 -274 -127v-520h166v-168h-359v670q0 72 -33.5 104.5t-85.5 32.5q-102 0 -272 -119v-520h166v-168 h-535z" />
<glyph unicode="n" d="M55 799v168h363v-117q182 133 330 133q111 0 182 -69.5t71 -204.5v-541h166v-168h-358v633q0 176 -113 176q-123 0 -278 -123v-518h166v-168h-525v168h166v631h-170z" />
<glyph unicode="o" d="M78 483q0 219 145.5 365.5t364.5 146.5q217 0 362.5 -146.5t145.5 -365.5t-145.5 -365.5t-364.5 -146.5q-217 0 -362.5 146.5t-145.5 365.5zM283 483q0 -141 87 -234t216 -93q131 0 218 93t87 234q0 139 -87 233.5t-218 94.5q-129 0 -216 -94.5t-87 -233.5z" />
<glyph unicode="p" horiz-adv-x="1280" d="M14 -266h176v1065h-161v168h354v-152h4q131 168 336 168q207 0 340 -141.5t133 -362.5q0 -217 -137 -362.5t-338 -145.5q-195 0 -338 148v-385h186v-168h-555v168zM379 471q0 -141 86 -233.5t219 -92.5q139 0 226 94.5t87 247.5q0 141 -86 234.5t-217 93.5 q-135 0 -225 -98.5t-90 -245.5z" />
<glyph unicode="q" horiz-adv-x="1259" d="M74 481q0 219 133 360.5t340 141.5q205 0 336 -168h4v152h354v-168h-162v-1065h176v-168h-555v168h187v389q-139 -152 -340 -152t-337 146.5t-136 363.5zM272 485q0 -152 86 -246t226 -94q133 0 220 92.5t87 233.5q0 147 -90 245.5t-226 98.5q-131 0 -217 -93.5 t-86 -236.5z" />
<glyph unicode="r" horiz-adv-x="854" d="M45 799v168h346v-217h4q43 117 126 175t179 58h125v-192h-102q-160 0 -225.5 -86.5t-65.5 -260.5v-276h209v-168h-592v168h191v631h-195z" />
<glyph unicode="s" horiz-adv-x="937" d="M84 0v332h170v-33q12 -72 74.5 -114t156.5 -42q90 0 144.5 33t54.5 88q0 61 -57.5 90t-134 34t-174 35t-158.5 91q-76 76 -76 184q0 125 96 205t244 80q135 0 235 -55v39h168v-320h-168v60q-80 119 -225 118q-78 0 -124 -32.5t-46 -85.5q0 -55 62.5 -82t143.5 -33 t177 -33t150 -80q82 -82 82 -200q0 -131 -102.5 -213t-268.5 -82q-152 0 -254 69v-53h-170z" />
<glyph unicode="t" horiz-adv-x="618" d="M61 799v168h125v149l193 174v-323h178v-168h-178v-559q0 -78 77 -79q40 0 101 21v-172q-84 -27 -141 -26q-229 0 -230 229v586h-125z" />
<glyph unicode="u" horiz-adv-x="1153" d="M53 799v168h330v-674q0 -141 115 -141q61 0 137 33.5t139 88.5v525h-166v168h359v-799h166v-168h-359v111q-164 -127 -315 -127q-268 0 -269 299v516h-137z" />
<glyph unicode="v" horiz-adv-x="1110" d="M-4 799v168h487v-168h-127l209 -549l209 549h-135v168h475v-168h-149l-312 -815h-170l-317 815h-170z" />
<glyph unicode="w" horiz-adv-x="1579" d="M-2 799v168h408v-168h-125l182 -584h4l182 584h-106v168h469v-168h-105l183 -584h4l184 584h-135v168h436v-168h-137l-260 -815h-178l-220 700h-4l-225 -700h-180l-258 815h-119z" />
<glyph unicode="x" horiz-adv-x="1130" d="M33 0v168h143l293 330l-279 301h-131v168h455v-168h-121l174 -187l168 187h-98v168h457v-168h-160l-264 -301l303 -330h125v-168h-463v168h137l-205 217l-188 -217h125v-168h-471z" />
<glyph unicode="y" horiz-adv-x="1153" d="M16 799v168h480v-168h-115l209 -535l205 535h-129v168h469v-168h-144l-479 -1233h-324v168h191l117 284l-318 781h-162z" />
<glyph unicode="z" horiz-adv-x="917" d="M33 0v158l602 653h-393v-186h-162v342h786v-168l-610 -641h440v198h170v-356h-833z" />
<glyph unicode="{" horiz-adv-x="681" d="M57 401v156q123 0 165 79t42 224v174q0 172 62.5 264.5t226.5 92.5h84v-148h-31q-106 0 -139 -37t-33 -159v-138q0 -197 -44 -285.5t-167 -144.5q123 -55 167 -144t44 -286v-139q0 -123 33 -160t139 -37h31v-147h-84q-164 0 -226.5 92t-62.5 264v176q0 145 -42 224 t-165 79z" />
<glyph unicode="|" horiz-adv-x="1079" d="M461 -434v1825h157v-1825h-157z" />
<glyph unicode="}" horiz-adv-x="681" d="M45 -287h31q109 0 141.5 37t32.5 160v137q0 197 43 286t166 144q-123 55 -166 144.5t-43 285.5v140q0 123 -33 159.5t-141 36.5h-31v148h84q164 0 225.5 -92.5t61.5 -264.5v-176q0 -145 43 -224t166 -79v-156q-123 0 -166 -78.5t-43 -224.5v-174q0 -172 -61.5 -264 t-225.5 -92h-84v147z" />
<glyph unicode="~" horiz-adv-x="1193" d="M84 557v205q104 121 276 121q111 0 267 -68q164 -70 221 -70q135 0 262 140v-211q-68 -61 -133.5 -88t-147.5 -27q-98 0 -254 70q-152 68 -231 67q-68 0 -124 -29.5t-136 -109.5z" />
<glyph unicode="&#xa1;" horiz-adv-x="598" d="M176 721v246h246v-246h-246zM199 0l49 590h102l49 -590v-424h-200v424z" />
<glyph unicode="&#xa2;" horiz-adv-x="1067" d="M82 492q0 166 87 293.5t222 180t275 13.5l155 442h111l-170 -475q33 -16 67 -45v66h172v-365h-172q-25 137 -124 186l-224 -626q119 -39 226.5 8t164.5 166l158 -74q-84 -188 -252 -253.5t-356 -16.5l-154 -434h-108l172 473q-117 72 -183.5 190.5t-66.5 270.5zM287 492 q0 -96 24.5 -150.5t89.5 -120.5l207 596q-129 23 -225 -68t-96 -257z" />
<glyph unicode="&#xa3;" horiz-adv-x="1110" d="M66 162q0 84 60 140t146 56q74 0 148 -39q0 147 -47 279h-307v162h247q-31 57 -57.5 157.5t-26.5 161.5q0 160 102.5 247t270.5 87q182 0 283.5 -105.5t91.5 -285.5h-193q4 37 4 88t-45 96t-129 45q-186 0 -186 -161q0 -80 96 -330h248v-162h-201q39 -158 -18 -338 q14 -6 53 -25.5t60.5 -28.5t54.5 -18.5t59 -9.5q154 0 170 174h121q0 -178 -81 -276.5t-212 -98.5q-57 0 -112.5 19.5t-84 37t-100.5 66.5q-102 -123 -219 -123q-84 0 -140 51.5t-56 133.5zM166 162q0 -33 23.5 -54.5t60.5 -21.5q68 0 133 88q-88 63 -137 64 q-35 0 -57.5 -21.5t-22.5 -54.5z" />
<glyph unicode="&#xa4;" horiz-adv-x="1366" d="M182 303l131 129q-86 137 -86 270q0 135 86 256l-131 132l107 106l129 -131q121 86 262 86q145 0 266 -86l131 131l105 -106l-129 -132q84 -125 84 -268q0 -141 -84 -258l129 -129l-105 -104l-131 129q-127 -88 -268 -88q-143 0 -260 88l-129 -129zM375 694 q0 -127 90 -217t217 -90t217 90t90 217t-90 218.5t-217 91.5t-217 -91.5t-90 -218.5z" />
<glyph unicode="&#xa5;" horiz-adv-x="1323" d="M-25 1217v174h572v-174h-174l112 -158h371l102 158h-174v174h555v-174h-184l-104 -158h268v-117h-346l-205 -309h551v-117h-551v-342h190v-174h-585v174h186v342h-555v117h555l-217 309h-338v117h254l-113 158h-170zM569 942l109 -154l102 154h-211z" />
<glyph unicode="&#xa6;" horiz-adv-x="1079" d="M461 344h157v-778h-157v778zM461 612v779h157v-779h-157z" />
<glyph unicode="&#xa7;" horiz-adv-x="980" d="M51 518q0 168 201 287q-168 96 -168 274q0 139 111.5 237.5t277.5 98.5q182 0 290.5 -93t108.5 -271h-190q-14 197 -219 196q-82 0 -135.5 -41t-53.5 -104q0 -70 68 -118t164 -81t193.5 -70.5t165 -110.5t67.5 -177q0 -174 -197 -293q166 -96 166 -266 q0 -150 -109.5 -246t-281.5 -96q-186 0 -290.5 103t-104.5 267h190q2 -94 57.5 -145t151.5 -51q88 0 142.5 41t54.5 106q0 68 -68 114t-165 78.5t-194.5 70.5t-165 112t-67.5 178zM229 567q0 -39 16.5 -66.5t55.5 -51t77 -38.5l108 -44q71 -29 124 -54q68 33 107 82t39 101 q0 49 -41 88t-91.5 59.5t-131 50t-123.5 51.5q-78 -45 -109 -85t-31 -93z" />
<glyph unicode="&#xa8;" horiz-adv-x="681" d="M45 1255.5q0 47.5 34 81t81 33.5t80.5 -33.5t33.5 -81t-33.5 -81t-80.5 -33.5t-81 33.5t-34 81zM408 1255.5q0 47.5 33.5 81t80.5 33.5t81 -33.5t34 -81t-34 -81t-81 -33.5t-80.5 33.5t-33.5 81z" />
<glyph unicode="&#xa9;" horiz-adv-x="1515" d="M2 737.5q0 313.5 220 533.5t533.5 220t534.5 -220t221 -533.5t-221 -534.5t-534.5 -221t-533.5 221t-220 534.5zM127 737q0 -262 184.5 -446.5t444.5 -184.5t445 184.5t185 446.5q0 260 -184 444.5t-446 184.5q-260 0 -444.5 -183.5t-184.5 -445.5zM362 735.5 q0 196.5 109 310t295 113.5q131 0 220 -61.5t122 -173.5l-119 -29q-61 154 -227 154q-119 0 -190.5 -86t-71.5 -232q0 -143 67.5 -226t184.5 -83q92 0 158.5 51t88.5 141l123 -36q-31 -127 -128 -201t-236 -74q-180 0 -288 118t-108 314.5z" />
<glyph unicode="&#xaa;" horiz-adv-x="704" d="M47 989q0 80 66.5 134.5t165.5 54.5q84 0 170 -50v80q0 51 -36 80t-104 29q-90 0 -135 -70l-117 31q78 135 271 135q242 0 241 -186v-309h107v-103h-215v72q-88 -82 -201 -82q-90 0 -151.5 53t-61.5 131zM166 991q0 -43 31.5 -69.5t83.5 -26.5q88 0 168 70v67 q-76 57 -160 58q-53 0 -88 -28t-35 -71z" />
<glyph unicode="&#xab;" horiz-adv-x="980" d="M33 485l303 486h194l-292 -486l292 -485h-194zM461 485l303 486h194l-292 -486l292 -485h-194z" />
<glyph unicode="&#xac;" horiz-adv-x="1366" d="M135 836v157h1096v-645h-158v488h-938z" />
<glyph unicode="&#xad;" horiz-adv-x="724" d="M63 395v168h601v-168h-601z" />
<glyph unicode="&#xae;" horiz-adv-x="1515" d="M2 737.5q0 313.5 220 533.5t533.5 220t534.5 -220t221 -533.5t-221 -534.5t-534.5 -221t-533.5 221t-220 534.5zM127 737q0 -262 184.5 -446.5t444.5 -184.5t445 184.5t185 446.5q0 260 -184 444.5t-446 184.5q-260 0 -444.5 -183.5t-184.5 -445.5zM426 319v811h354 q135 0 204 -65.5t69 -153.5q0 -94 -64.5 -157.5t-167.5 -69.5v-4q76 -29 152 -145l135 -216h-160l-71 127q-76 137 -121 177.5t-121 40.5h-78v-345h-131zM557 776h186q170 0 170 123q0 55 -38.5 88t-116.5 33h-201v-244z" />
<glyph unicode="&#xaf;" horiz-adv-x="681" d="M49 1192v108h584v-108h-584z" />
<glyph unicode="&#xb0;" horiz-adv-x="811" d="M98 1108q0 127 90.5 217t217 90t217 -90t90.5 -217t-90.5 -217t-217 -90t-217 90t-90.5 217zM209 1110q0 -84 56.5 -140.5t140 -56.5t140 56.5t56.5 140.5t-56.5 140.5t-140 56.5t-140 -56.5t-56.5 -140.5z" />
<glyph unicode="&#xb1;" horiz-adv-x="1366" d="M135 -49v158h1096v-158h-1096zM135 760v158h469v468h158v-468h469v-158h-469v-469h-158v469h-469z" />
<glyph unicode="&#xb2;" horiz-adv-x="681" d="M49 680q0 94 42 170t102.5 121t120 82t101.5 74.5t42 78.5q0 53 -33 82t-92 29q-150 0 -127 -193h-135q-14 133 55.5 211t210.5 78q117 0 189.5 -55t72.5 -144q0 -72 -56.5 -130t-125 -92t-136 -89t-85.5 -119h284v162h127l-8 -266h-549z" />
<glyph unicode="&#xb3;" horiz-adv-x="681" d="M41 932h133q4 -168 168 -168q68 0 107.5 32.5t39.5 86.5q0 123 -190 123h-51v100h55q154 0 154 102q0 49 -32 79t-85 30q-63 0 -92 -34t-31 -109h-139q0 240 258 239q117 0 186.5 -53t69.5 -143q0 -96 -96 -158q74 -31 103.5 -70t29.5 -102q0 -98 -82 -158.5t-215 -60.5 q-141 0 -216 68.5t-75 195.5z" />
<glyph unicode="&#xb4;" horiz-adv-x="681" d="M156 1096l141 317h276l-288 -317h-129z" />
<glyph unicode="&#xb5;" horiz-adv-x="1130" d="M135 -434v1401h178v-484q0 -168 62.5 -257t181.5 -89q109 0 183.5 80t74.5 232v518h178v-967h-159v125h-5q-53 -82 -112.5 -115t-149.5 -33q-84 0 -139 29t-111 100h-4v-540h-178z" />
<glyph unicode="&#xb6;" horiz-adv-x="1110" d="M0 971q0 178 115.5 299t343.5 121h647v-174h-143v-1651h-172v1651h-216v-1651h-172v995q-186 10 -294.5 121t-108.5 289z" />
<glyph unicode="&#xb7;" horiz-adv-x="598" d="M176 549v246h246v-246h-246z" />
<glyph unicode="&#xb8;" horiz-adv-x="681" d="M221 -311q145 -4 146 67q0 55 -80 58l32 200h95l-13 -90q117 -29 117 -157q0 -80 -56 -130.5t-169 -50.5h-72v103z" />
<glyph unicode="&#xb9;" horiz-adv-x="681" d="M154 1303v98h249v-623h109v-98h-356v98h112v525h-114z" />
<glyph unicode="&#xba;" horiz-adv-x="768" d="M53 1106q0 133 94.5 220t237.5 87q141 0 235.5 -88t94.5 -219t-94.5 -219t-235.5 -88q-143 0 -237.5 87t-94.5 220zM184 1106q0 -84 57.5 -140.5t143.5 -56.5q84 0 141.5 56.5t57.5 140.5q0 82 -57.5 138t-141.5 56q-86 0 -143.5 -55t-57.5 -139z" />
<glyph unicode="&#xbb;" horiz-adv-x="980" d="M23 0l292 485l-292 486h194l303 -486l-303 -485h-194zM451 0l292 485l-292 486h194l303 -486l-303 -485h-194z" />
<glyph unicode="&#xbc;" horiz-adv-x="1984" d="M154 1303v98h249v-623h109v-98h-356v98h112v525h-114zM199 0l1104 1391h120l-1101 -1391h-123zM956 276l347 451h114v-438h131v-99h-131v-92h76v-98h-295v98h88v92h-276q-15 53 -54 86zM1087 289h199v258h-4z" />
<glyph unicode="&#xbd;" horiz-adv-x="1984" d="M154 1303v98h249v-623h109v-98h-356v98h112v525h-114zM199 0l1104 1391h120l-1101 -1391h-123zM1010 0q0 94 42 170t101 121t119.5 82t102.5 74.5t42 78.5q0 53 -32.5 82t-92.5 29q-150 0 -127 -193h-135q-14 133 55.5 211t210.5 78q117 0 190 -55t73 -143 q0 -72 -56.5 -130.5t-125 -92t-136 -89t-86.5 -119.5h285v162h127l-8 -266h-549z" />
<glyph unicode="&#xbe;" horiz-adv-x="1984" d="M119 932h133q4 -168 168 -168q68 0 107.5 32.5t39.5 86.5q0 123 -190 123h-51v100h55q154 0 154 102q0 49 -32 79t-85 30q-63 0 -92 -34t-31 -109h-139q0 240 258 239q117 0 186.5 -53t69.5 -143q0 -96 -97 -158q74 -31 104 -70t30 -102q0 -98 -82 -158.5t-215 -60.5 q-141 0 -216 68.5t-75 195.5zM381 0l1104 1391h121l-1102 -1391h-123zM1139 276l346 451h114v-438h132v-99h-132v-92h76v-98h-295v98h88v92h-276q-14 53 -53 86zM1270 289h198v258h-4z" />
<glyph unicode="&#xbf;" horiz-adv-x="960" d="M68 -53q0 156 99 268.5t288 106.5l24 270h103l24 -434l-14 -6q-135 23 -231.5 -30.5t-96.5 -184.5q0 -100 60.5 -161t160.5 -61q117 0 176.5 72t51.5 213h188q10 -125 -25.5 -217t-102 -139t-137.5 -68.5t-144 -21.5q-197 0 -310.5 105.5t-113.5 287.5zM410 721v246h245 v-246h-245z" />
<glyph unicode="&#xc0;" horiz-adv-x="1429" d="M-16 0v174h168l380 1061h-163v156h710v-156h-164l375 -1061h156v-174h-545v174h172l-102 315h-500l-109 -315h170v-174h-548zM485 1837h277l141 -317h-129zM522 651h396l-185 584h-18z" />
<glyph unicode="&#xc1;" horiz-adv-x="1429" d="M-16 0v174h168l380 1061h-163v156h710v-156h-164l375 -1061h156v-174h-545v174h172l-102 315h-500l-109 -315h170v-174h-548zM522 651h396l-185 584h-18zM530 1520l142 317h276l-289 -317h-129z" />
<glyph unicode="&#xc2;" horiz-adv-x="1429" d="M-16 0v174h168l380 1061h-163v156h710v-156h-164l375 -1061h156v-174h-545v174h172l-102 315h-500l-109 -315h170v-174h-548zM412 1522l168 313h266l174 -313h-141l-166 176l-166 -176h-135zM522 651h396l-185 584h-18z" />
<glyph unicode="&#xc3;" horiz-adv-x="1429" d="M-16 0v174h168l380 1061h-163v156h710v-156h-164l375 -1061h156v-174h-545v174h172l-102 315h-500l-109 -315h170v-174h-548zM385 1552q0 135 51 202t131 67q59 0 165 -61.5t132 -61.5q70 0 72 117h111q0 -129 -47.5 -203t-135.5 -74q-68 0 -172 62.5t-135 62.5 q-57 0 -57 -111h-115zM522 651h396l-185 584h-18z" />
<glyph unicode="&#xc4;" horiz-adv-x="1429" d="M-16 0v174h168l380 1061h-163v156h710v-156h-164l375 -1061h156v-174h-545v174h172l-102 315h-500l-109 -315h170v-174h-548zM420 1679q0 47 33.5 81t81 34t81 -34t33.5 -81t-33.5 -80.5t-81 -33.5t-81 33.5t-33.5 80.5zM522 651h396l-185 584h-18zM782 1679q0 47 34 81 t81 34t81 -34t34 -81t-34 -80.5t-81 -33.5t-81 33.5t-34 80.5z" />
<glyph unicode="&#xc5;" horiz-adv-x="1429" d="M-16 0v174h168l380 1061h-163v156h710v-156h-164l375 -1061h156v-174h-545v174h172l-102 315h-500l-109 -315h170v-174h-548zM516 1679q0 82 57.5 140.5t141.5 58.5t142 -58.5t58 -140.5t-58 -141t-142 -59q-82 0 -140.5 58t-58.5 142zM522 651h396l-185 584h-18z M594 1679.5q0 -51.5 35 -86t86 -34.5t86 34.5t35 86t-35 86t-86 34.5t-86 -34.5t-35 -86z" />
<glyph unicode="&#xc6;" horiz-adv-x="1921" d="M-121 0v174h135l539 1043h-221v174h1505v-418h-172v244h-604v-408h524v-174h-524v-461h604v254h172v-428h-1206v174h221v461h-391l-240 -461h152v-174h-494zM549 809h303v408h-88z" />
<glyph unicode="&#xc7;" horiz-adv-x="1556" d="M88 694q0 324 189.5 521.5t502.5 197.5q270 0 459 -149v127h180v-447h-180q-59 131 -180 208t-268 77q-207 0 -340.5 -148.5t-133.5 -380.5q0 -227 138.5 -380.5t343.5 -153.5q154 0 291 103.5t186 295.5l182 -100q-61 -227 -241.5 -357.5t-438.5 -130.5l-8 -53 q117 -29 117 -157q0 -80 -56.5 -130.5t-168.5 -50.5h-72v103q145 -4 145 67q0 55 -80 58l29 170q-268 33 -432 227t-164 483z" />
<glyph unicode="&#xc8;" horiz-adv-x="1280" d="M57 0v174h181v1043h-181v174h1153v-418h-172v244h-592v-414h517v-174h-517v-455h592v254h172v-428h-1153zM410 1837h276l141 -317h-129z" />
<glyph unicode="&#xc9;" horiz-adv-x="1280" d="M57 0v174h181v1043h-181v174h1153v-418h-172v244h-592v-414h517v-174h-517v-455h592v254h172v-428h-1153zM455 1520l141 317h276l-288 -317h-129z" />
<glyph unicode="&#xca;" horiz-adv-x="1280" d="M57 0v174h181v1043h-181v174h1153v-418h-172v244h-592v-414h517v-174h-517v-455h592v254h172v-428h-1153zM336 1522l168 313h266l174 -313h-141l-166 176l-166 -176h-135z" />
<glyph unicode="&#xcb;" horiz-adv-x="1280" d="M57 0v174h181v1043h-181v174h1153v-418h-172v244h-592v-414h517v-174h-517v-455h592v254h172v-428h-1153zM344 1679q0 47 34 81t81 34t80.5 -34t33.5 -81t-33.5 -80.5t-80.5 -33.5t-81 33.5t-34 80.5zM707 1679q0 47 33.5 81t80.5 34t81 -34t34 -81t-34 -80.5t-81 -33.5 t-80.5 33.5t-33.5 80.5z" />
<glyph unicode="&#xcc;" horiz-adv-x="641" d="M63 0v174h152v1043h-152v174h512v-174h-151v-1043h151v-174h-512zM90 1837h277l141 -317h-129z" />
<glyph unicode="&#xcd;" horiz-adv-x="641" d="M63 0v174h152v1043h-152v174h512v-174h-151v-1043h151v-174h-512zM135 1520l141 317h277l-289 -317h-129z" />
<glyph unicode="&#xce;" horiz-adv-x="641" d="M16 1522l168 313h267l174 -313h-142l-166 176l-165 -176h-136zM63 0v174h152v1043h-152v174h512v-174h-151v-1043h151v-174h-512z" />
<glyph unicode="&#xcf;" horiz-adv-x="641" d="M25 1679q0 47 33.5 81t80.5 34t81 -34t34 -81t-34 -80.5t-81 -33.5t-80.5 33.5t-33.5 80.5zM63 0v174h152v1043h-152v174h512v-174h-151v-1043h151v-174h-512zM387 1679q0 47 34 81t81 34t80.5 -34t33.5 -81t-33.5 -80.5t-80.5 -33.5t-81 33.5t-34 80.5z" />
<glyph unicode="&#xd0;" horiz-adv-x="1492" d="M27 0v174h188v434h-188v174h188v435h-188v174h653q195 0 337 -58.5t220 -159t115 -216t37 -248.5q0 -344 -180.5 -526.5t-546.5 -182.5h-635zM424 174h246q506 0 506 528q0 236 -124 375.5t-378 139.5h-250v-435h317v-174h-317v-434z" />
<glyph unicode="&#xd1;" horiz-adv-x="1472" d="M8 0v174h199v1043h-199v174h475l602 -1082h5v908h-195v174h571v-174h-204v-1231h-220l-659 1188h-4v-1000h201v-174h-572zM406 1552q0 135 51 202t131 67q59 0 164.5 -61.5t132.5 -61.5q70 0 71 117h111q0 -129 -47 -203t-135 -74q-68 0 -172.5 62.5t-134.5 62.5 q-57 0 -58 -111h-114z" />
<glyph unicode="&#xd2;" horiz-adv-x="1642" d="M102 694.5q0 315.5 203 517t516.5 201.5t516 -202.5t202.5 -516t-202.5 -515.5t-516.5 -202q-315 0 -517 201t-202 516.5zM332 694.5q0 -225.5 141 -379t348 -153.5t348.5 153.5t141.5 379t-141.5 380t-348.5 154.5t-348 -154.5t-141 -380zM592 1837h276l142 -317h-129z " />
<glyph unicode="&#xd3;" horiz-adv-x="1642" d="M102 694.5q0 315.5 203 517t516.5 201.5t516 -202.5t202.5 -516t-202.5 -515.5t-516.5 -202q-315 0 -517 201t-202 516.5zM332 694.5q0 -225.5 141 -379t348 -153.5t348.5 153.5t141.5 379t-141.5 380t-348.5 154.5t-348 -154.5t-141 -380zM637 1520l141 317h277 l-289 -317h-129z" />
<glyph unicode="&#xd4;" horiz-adv-x="1642" d="M102 694.5q0 315.5 203 517t516.5 201.5t516 -202.5t202.5 -516t-202.5 -515.5t-516.5 -202q-315 0 -517 201t-202 516.5zM332 694.5q0 -225.5 141 -379t348 -153.5t348.5 153.5t141.5 379t-141.5 380t-348.5 154.5t-348 -154.5t-141 -380zM518 1522l168 313h266 l174 -313h-141l-166 176l-166 -176h-135z" />
<glyph unicode="&#xd5;" horiz-adv-x="1642" d="M102 694.5q0 315.5 203 517t516.5 201.5t516 -202.5t202.5 -516t-202.5 -515.5t-516.5 -202q-315 0 -517 201t-202 516.5zM332 694.5q0 -225.5 141 -379t348 -153.5t348.5 153.5t141.5 379t-141.5 380t-348.5 154.5t-348 -154.5t-141 -380zM492 1552q0 135 51 202t131 67 q59 0 164.5 -61.5t132.5 -61.5q70 0 71 117h111q0 -129 -47 -203t-135 -74q-68 0 -172.5 62.5t-134.5 62.5q-57 0 -58 -111h-114z" />
<glyph unicode="&#xd6;" horiz-adv-x="1642" d="M102 694.5q0 315.5 203 517t516.5 201.5t516 -202.5t202.5 -516t-202.5 -515.5t-516.5 -202q-315 0 -517 201t-202 516.5zM332 694.5q0 -225.5 141 -379t348 -153.5t348.5 153.5t141.5 379t-141.5 380t-348.5 154.5t-348 -154.5t-141 -380zM526 1679q0 47 34 81t81 34 t81 -34t34 -81t-34 -80.5t-81 -33.5t-81 33.5t-34 80.5zM889 1679q0 47 33.5 81t81 34t81 -34t33.5 -81t-33.5 -80.5t-81 -33.5t-81 33.5t-33.5 80.5z" />
<glyph unicode="&#xd7;" horiz-adv-x="1368" d="M178 270l397 398l-397 397l111 111l395 -396l395 396l111 -111l-397 -397l397 -398l-113 -112l-393 395l-393 -395z" />
<glyph unicode="&#xd8;" horiz-adv-x="1642" d="M102 707q0 305 202 505.5t511 200.5q250 0 436 -131l115 129l100 -88l-112 -129q186 -197 186 -498q0 -311 -205 -515t-518 -204q-242 0 -428 129l-113 -126l-102 86l115 129q-187 205 -187 512zM332 702q0 -195 100 -346l682 770q-135 102 -299 103q-211 0 -347 -149 t-136 -378zM526 260q125 -98 291 -98q207 0 350.5 155.5t143.5 380.5q0 190 -105 330z" />
<glyph unicode="&#xd9;" horiz-adv-x="1386" d="M27 1217v174h544v-174h-161v-805q0 -266 278 -267q154 0 221.5 68t67.5 215v789h-162v174h545v-174h-174v-801q0 -127 -43 -218.5t-117 -136.5t-151.5 -64.5t-169.5 -19.5q-279 0 -391.5 120t-112.5 321v799h-174zM463 1837h276l142 -317h-129z" />
<glyph unicode="&#xda;" horiz-adv-x="1386" d="M27 1217v174h544v-174h-161v-805q0 -266 278 -267q154 0 221.5 68t67.5 215v789h-162v174h545v-174h-174v-801q0 -127 -43 -218.5t-117 -136.5t-151.5 -64.5t-169.5 -19.5q-279 0 -391.5 120t-112.5 321v799h-174zM508 1520l141 317h277l-289 -317h-129z" />
<glyph unicode="&#xdb;" horiz-adv-x="1386" d="M27 1217v174h544v-174h-161v-805q0 -266 278 -267q154 0 221.5 68t67.5 215v789h-162v174h545v-174h-174v-801q0 -127 -43 -218.5t-117 -136.5t-151.5 -64.5t-169.5 -19.5q-279 0 -391.5 120t-112.5 321v799h-174zM389 1522l168 313h266l174 -313h-141l-166 176 l-166 -176h-135z" />
<glyph unicode="&#xdc;" horiz-adv-x="1386" d="M27 1217v174h544v-174h-161v-805q0 -266 278 -267q154 0 221.5 68t67.5 215v789h-162v174h545v-174h-174v-801q0 -127 -43 -218.5t-117 -136.5t-151.5 -64.5t-169.5 -19.5q-279 0 -391.5 120t-112.5 321v799h-174zM397 1679q0 47 34 81t81 34t81 -34t34 -81t-34 -80.5 t-81 -33.5t-81 33.5t-34 80.5zM760 1679q0 47 33.5 81t81 34t81 -34t33.5 -81t-33.5 -80.5t-81 -33.5t-81 33.5t-33.5 80.5z" />
<glyph unicode="&#xdd;" horiz-adv-x="1323" d="M-20 1217v174h571v-174h-174l305 -429l281 429h-175v174h555v-174h-184l-387 -584v-459h191v-174h-586v174h186v459l-413 584h-170zM477 1520l141 317h277l-289 -317h-129z" />
<glyph unicode="&#xde;" d="M41 0v174h174v1043h-174v174h565v-174h-182v-105h233q137 0 233.5 -36t144.5 -96t67.5 -123.5t19.5 -137.5q0 -76 -19.5 -145.5t-66.5 -139t-144 -112.5t-235 -43h-233v-105h182v-174h-565zM424 446h233q252 0 252 246q0 121 -65.5 183.5t-186.5 62.5h-233v-492z" />
<glyph unicode="&#xdf;" horiz-adv-x="1323" d="M53 0v168h176v743q0 145 28 233.5t97 158.5q51 51 143.5 83.5t190.5 32.5q186 0 302 -94t116 -246q0 -193 -180 -278v-4q145 -31 226 -135.5t81 -262.5q0 -186 -104.5 -300.5t-274.5 -114.5q-98 0 -174 39v159q57 -31 125 -30q102 0 162.5 68.5t60.5 182.5q0 137 -85 216 t-263 79v158q111 0 169 59.5t58 143.5q0 86 -60.5 139t-160.5 53q-141 0 -202.5 -79.5t-61.5 -256.5v-747h151v-168h-520z" />
<glyph unicode="&#xe0;" horiz-adv-x="1087" d="M90 291q0 133 101.5 223t250.5 90q139 0 265 -82v127q0 96 -60.5 141.5t-154.5 45.5q-141 0 -207 -115l-183 49q123 225 418 225q199 0 289 -84t90 -213v-530h166v-168h-336v119q-166 -135 -311 -135q-137 0 -232.5 89t-95.5 218zM272 291q0 -70 48.5 -115t125.5 -45 q135 0 261 115v114q-125 96 -250 97q-80 0 -132.5 -47t-52.5 -119zM313 1413h277l141 -317h-129z" />
<glyph unicode="&#xe1;" horiz-adv-x="1087" d="M90 291q0 133 101.5 223t250.5 90q139 0 265 -82v127q0 96 -60.5 141.5t-154.5 45.5q-141 0 -207 -115l-183 49q123 225 418 225q199 0 289 -84t90 -213v-530h166v-168h-336v119q-166 -135 -311 -135q-137 0 -232.5 89t-95.5 218zM272 291q0 -70 48.5 -115t125.5 -45 q135 0 261 115v114q-125 96 -250 97q-80 0 -132.5 -47t-52.5 -119zM358 1096l142 317h276l-289 -317h-129z" />
<glyph unicode="&#xe2;" horiz-adv-x="1087" d="M90 291q0 133 101.5 223t250.5 90q139 0 265 -82v127q0 96 -60.5 141.5t-154.5 45.5q-141 0 -207 -115l-183 49q123 225 418 225q199 0 289 -84t90 -213v-530h166v-168h-336v119q-166 -135 -311 -135q-137 0 -232.5 89t-95.5 218zM240 1098l168 313h266l174 -313h-141 l-166 176l-166 -176h-135zM272 291q0 -70 48.5 -115t125.5 -45q135 0 261 115v114q-125 96 -250 97q-80 0 -132.5 -47t-52.5 -119z" />
<glyph unicode="&#xe3;" horiz-adv-x="1087" d="M90 291q0 133 101.5 223t250.5 90q139 0 265 -82v127q0 96 -60.5 141.5t-154.5 45.5q-141 0 -207 -115l-183 49q123 225 418 225q199 0 289 -84t90 -213v-530h166v-168h-336v119q-166 -135 -311 -135q-137 0 -232.5 89t-95.5 218zM213 1128q0 135 51 202t131 67 q59 0 165 -61.5t132 -61.5q70 0 72 117h110q0 -129 -47 -203t-135 -74q-68 0 -172 62.5t-135 62.5q-57 0 -57 -111h-115zM272 291q0 -70 48.5 -115t125.5 -45q135 0 261 115v114q-125 96 -250 97q-80 0 -132.5 -47t-52.5 -119z" />
<glyph unicode="&#xe4;" horiz-adv-x="1087" d="M90 291q0 133 101.5 223t250.5 90q139 0 265 -82v127q0 96 -60.5 141.5t-154.5 45.5q-141 0 -207 -115l-183 49q123 225 418 225q199 0 289 -84t90 -213v-530h166v-168h-336v119q-166 -135 -311 -135q-137 0 -232.5 89t-95.5 218zM248 1255.5q0 47.5 33.5 81t81 33.5 t81 -33.5t33.5 -81t-33.5 -81t-81 -33.5t-81 33.5t-33.5 81zM272 291q0 -70 48.5 -115t125.5 -45q135 0 261 115v114q-125 96 -250 97q-80 0 -132.5 -47t-52.5 -119zM610 1255.5q0 47.5 34 81t81 33.5t81 -33.5t34 -81t-34 -81t-81 -33.5t-81 33.5t-34 81z" />
<glyph unicode="&#xe5;" horiz-adv-x="1087" d="M90 291q0 133 101.5 223t250.5 90q139 0 265 -82v127q0 96 -60.5 141.5t-154.5 45.5q-141 0 -207 -115l-183 49q123 225 418 225q199 0 289 -84t90 -213v-530h166v-168h-336v119q-166 -135 -311 -135q-137 0 -232.5 89t-95.5 218zM272 291q0 -70 48.5 -115t125.5 -45 q135 0 261 115v114q-125 96 -250 97q-80 0 -132.5 -47t-52.5 -119zM344 1255q0 84 57.5 141.5t141.5 57.5t142 -58.5t58 -140.5q0 -84 -58 -142t-142 -58q-82 0 -140.5 58t-58.5 142zM422 1255.5q0 -51.5 35 -86t86 -34.5t86 34.5t35 86t-35 86t-86 34.5t-86 -34.5t-35 -86z " />
<glyph unicode="&#xe6;" horiz-adv-x="1812" d="M86 276q0 158 121 239t256 81q139 0 282 -82v135q0 96 -62 140.5t-161 44.5q-172 0 -241 -119l-185 53q127 227 447 227q238 0 346 -149q133 150 342 149q213 0 351 -155.5t142 -403.5h-786q10 -131 100 -214t222 -83q84 0 163.5 40t132.5 110l168 -74 q-66 -113 -190.5 -178.5t-269.5 -65.5q-270 0 -433 209q-66 -94 -174 -151.5t-221 -57.5q-154 0 -252 86t-98 219zM299 276q0 -63 50 -106t126 -43q158 0 270 123v96q-121 94 -249 94q-86 0 -141.5 -46t-55.5 -118zM938 575h580q-20 115 -99.5 183.5t-191.5 68.5 q-106 0 -186 -68.5t-103 -183.5z" />
<glyph unicode="&#xe7;" horiz-adv-x="1067" d="M72 492q0 209 138 356t337 147q162 0 272 -94v66h172v-365h-172q-16 102 -84 162q-68 57 -172 57q-129 0 -208 -91t-79 -236q0 -156 82 -252.5t213 -96.5q203 0 291 191l158 -74q-129 -287 -449 -291l-6 -47q117 -29 117 -157q0 -80 -56.5 -130.5t-168.5 -50.5h-72v103 q145 -4 145 67q0 55 -79 58l26 166q-195 31 -300 180.5t-105 331.5z" />
<glyph unicode="&#xe8;" d="M74 483q0 225 154.5 368.5t353.5 143.5q213 0 364.5 -151.5t151.5 -407.5h-813q20 -141 108 -219t223 -78q203 0 314 158l168 -74q-78 -121 -204 -186.5t-282 -65.5q-236 0 -387 144.5t-151 367.5zM291 575h612q-23 115 -113 191t-204 76q-113 0 -192.5 -73t-102.5 -194z M356 1413h277l141 -317h-129z" />
<glyph unicode="&#xe9;" d="M74 483q0 225 154.5 368.5t353.5 143.5q213 0 364.5 -151.5t151.5 -407.5h-813q20 -141 108 -219t223 -78q203 0 314 158l168 -74q-78 -121 -204 -186.5t-282 -65.5q-236 0 -387 144.5t-151 367.5zM291 575h612q-23 115 -113 191t-204 76q-113 0 -192.5 -73t-102.5 -194z M401 1096l142 317h276l-289 -317h-129z" />
<glyph unicode="&#xea;" d="M74 483q0 225 154.5 368.5t353.5 143.5q213 0 364.5 -151.5t151.5 -407.5h-813q20 -141 108 -219t223 -78q203 0 314 158l168 -74q-78 -121 -204 -186.5t-282 -65.5q-236 0 -387 144.5t-151 367.5zM283 1098l168 313h266l174 -313h-141l-166 176l-166 -176h-135zM291 575 h612q-23 115 -113 191t-204 76q-113 0 -192.5 -73t-102.5 -194z" />
<glyph unicode="&#xeb;" d="M74 483q0 225 154.5 368.5t353.5 143.5q213 0 364.5 -151.5t151.5 -407.5h-813q20 -141 108 -219t223 -78q203 0 314 158l168 -74q-78 -121 -204 -186.5t-282 -65.5q-236 0 -387 144.5t-151 367.5zM291 575h612q-23 115 -113 191t-204 76q-113 0 -192.5 -73t-102.5 -194z M291 1255.5q0 47.5 33.5 81t81 33.5t81 -33.5t33.5 -81t-33.5 -81t-81 -33.5t-81 33.5t-33.5 81zM653 1255.5q0 47.5 34 81t81 33.5t81 -33.5t34 -81t-34 -81t-81 -33.5t-81 33.5t-34 81z" />
<glyph unicode="&#xec;" horiz-adv-x="598" d="M-14 1413h276l141 -317h-129zM49 0v168h154v631h-154v168h346v-799h154v-168h-500z" />
<glyph unicode="&#xed;" horiz-adv-x="598" d="M49 0v168h154v631h-154v168h346v-799h154v-168h-500zM115 1096l141 317h276l-288 -317h-129z" />
<glyph unicode="&#xee;" horiz-adv-x="598" d="M-4 1098l168 313h266l174 -313h-141l-166 176l-166 -176h-135zM49 0v168h154v631h-154v168h346v-799h154v-168h-500z" />
<glyph unicode="&#xef;" horiz-adv-x="598" d="M4 1255.5q0 47.5 34 81t81 33.5t80.5 -33.5t33.5 -81t-33.5 -81t-80.5 -33.5t-81 33.5t-34 81zM49 0v168h154v631h-154v168h346v-799h154v-168h-500zM367 1255.5q0 47.5 33.5 81t80.5 33.5t81 -33.5t34 -81t-34 -81t-81 -33.5t-80.5 33.5t-33.5 81z" />
<glyph unicode="&#xf0;" d="M78 483q0 217 145.5 364.5t327.5 147.5q156 0 266 -96l4 4q-55 125 -215 256l-270 -102l-109 84l267 100q-98 68 -195 96l195 74q98 -39 186 -98l262 98l111 -86l-265 -98q154 -143 231 -329.5t77 -354.5q0 -270 -142.5 -421t-371.5 -151q-231 0 -367.5 155.5 t-136.5 356.5zM283 483q0 -141 87 -234t216 -93q131 0 218 93t87 234q0 139 -87 233.5t-218 94.5q-121 0 -212 -90.5t-91 -237.5z" />
<glyph unicode="&#xf1;" d="M55 799v168h363v-117q182 133 330 133q111 0 182 -69.5t71 -204.5v-541h166v-168h-358v633q0 176 -113 176q-123 0 -278 -123v-518h166v-168h-525v168h166v631h-170zM256 1128q0 135 51 202t131 67q59 0 165 -61.5t132 -61.5q70 0 72 117h111q0 -129 -47.5 -203 t-135.5 -74q-68 0 -172 62.5t-135 62.5q-57 0 -57 -111h-115z" />
<glyph unicode="&#xf2;" d="M78 483q0 219 145.5 365.5t364.5 146.5q217 0 362.5 -146.5t145.5 -365.5t-145.5 -365.5t-364.5 -146.5q-217 0 -362.5 146.5t-145.5 365.5zM283 483q0 -141 87 -234t216 -93q131 0 218 93t87 234q0 139 -87 233.5t-218 94.5q-129 0 -216 -94.5t-87 -233.5zM356 1413h277 l141 -317h-129z" />
<glyph unicode="&#xf3;" d="M78 483q0 219 145.5 365.5t364.5 146.5q217 0 362.5 -146.5t145.5 -365.5t-145.5 -365.5t-364.5 -146.5q-217 0 -362.5 146.5t-145.5 365.5zM283 483q0 -141 87 -234t216 -93q131 0 218 93t87 234q0 139 -87 233.5t-218 94.5q-129 0 -216 -94.5t-87 -233.5zM401 1096 l142 317h276l-289 -317h-129z" />
<glyph unicode="&#xf4;" d="M78 483q0 219 145.5 365.5t364.5 146.5q217 0 362.5 -146.5t145.5 -365.5t-145.5 -365.5t-364.5 -146.5q-217 0 -362.5 146.5t-145.5 365.5zM283 483q0 -141 87 -234t216 -93q131 0 218 93t87 234q0 139 -87 233.5t-218 94.5q-129 0 -216 -94.5t-87 -233.5zM283 1098 l168 313h266l174 -313h-141l-166 176l-166 -176h-135z" />
<glyph unicode="&#xf5;" d="M78 483q0 219 145.5 365.5t364.5 146.5q217 0 362.5 -146.5t145.5 -365.5t-145.5 -365.5t-364.5 -146.5q-217 0 -362.5 146.5t-145.5 365.5zM256 1128q0 135 51 202t131 67q59 0 165 -61.5t132 -61.5q70 0 72 117h111q0 -129 -47.5 -203t-135.5 -74q-68 0 -172 62.5 t-135 62.5q-57 0 -57 -111h-115zM283 483q0 -141 87 -234t216 -93q131 0 218 93t87 234q0 139 -87 233.5t-218 94.5q-129 0 -216 -94.5t-87 -233.5z" />
<glyph unicode="&#xf6;" d="M78 483q0 219 145.5 365.5t364.5 146.5q217 0 362.5 -146.5t145.5 -365.5t-145.5 -365.5t-364.5 -146.5q-217 0 -362.5 146.5t-145.5 365.5zM283 483q0 -141 87 -234t216 -93q131 0 218 93t87 234q0 139 -87 233.5t-218 94.5q-129 0 -216 -94.5t-87 -233.5zM291 1255.5 q0 47.5 33.5 81t81 33.5t81 -33.5t33.5 -81t-33.5 -81t-81 -33.5t-81 33.5t-33.5 81zM653 1255.5q0 47.5 34 81t81 33.5t81 -33.5t34 -81t-34 -81t-81 -33.5t-81 33.5t-34 81z" />
<glyph unicode="&#xf7;" horiz-adv-x="1368" d="M135 590v158h1094v-158h-1094zM584 254q0 41 28.5 69.5t69.5 28.5t69.5 -28.5t28.5 -69.5t-28.5 -69.5t-69.5 -28.5t-69.5 28.5t-28.5 69.5zM584 1083q0 41 28.5 70t69.5 29t69.5 -29t28.5 -70t-28.5 -69.5t-69.5 -28.5t-69.5 28.5t-28.5 69.5z" />
<glyph unicode="&#xf8;" d="M78 485q0 217 145.5 363.5t362.5 146.5q170 0 301 -92l96 113l68 -58l-97 -112q141 -147 142 -363q0 -219 -145.5 -365.5t-362.5 -146.5q-166 0 -299 92l-96 -114l-70 57l96 115q-141 145 -141 364zM283 485q0 -121 65 -215l414 486q-82 55 -174 55q-131 0 -218 -93.5 t-87 -232.5zM414 211q82 -55 174 -55q129 0 216 94t87 233q0 123 -66 211z" />
<glyph unicode="&#xf9;" horiz-adv-x="1153" d="M53 799v168h330v-674q0 -141 115 -141q61 0 137 33.5t139 88.5v525h-166v168h359v-799h166v-168h-359v111q-164 -127 -315 -127q-268 0 -269 299v516h-137zM285 1413h276l141 -317h-129z" />
<glyph unicode="&#xfa;" horiz-adv-x="1153" d="M53 799v168h330v-674q0 -141 115 -141q61 0 137 33.5t139 88.5v525h-166v168h359v-799h166v-168h-359v111q-164 -127 -315 -127q-268 0 -269 299v516h-137zM391 1096l141 317h277l-289 -317h-129z" />
<glyph unicode="&#xfb;" horiz-adv-x="1153" d="M53 799v168h330v-674q0 -141 115 -141q61 0 137 33.5t139 88.5v525h-166v168h359v-799h166v-168h-359v111q-164 -127 -315 -127q-268 0 -269 299v516h-137zM272 1098l168 313h267l174 -313h-142l-166 176l-165 -176h-136z" />
<glyph unicode="&#xfc;" horiz-adv-x="1153" d="M53 799v168h330v-674q0 -141 115 -141q61 0 137 33.5t139 88.5v525h-166v168h359v-799h166v-168h-359v111q-164 -127 -315 -127q-268 0 -269 299v516h-137zM281 1255.5q0 47.5 33.5 81t80.5 33.5t81 -33.5t34 -81t-34 -81t-81 -33.5t-80.5 33.5t-33.5 81zM643 1255.5 q0 47.5 34 81t81 33.5t80.5 -33.5t33.5 -81t-33.5 -81t-80.5 -33.5t-81 33.5t-34 81z" />
<glyph unicode="&#xfd;" horiz-adv-x="1153" d="M16 799v168h480v-168h-115l209 -535l205 535h-129v168h469v-168h-144l-479 -1233h-324v168h191l117 284l-318 781h-162zM391 1096l141 317h277l-289 -317h-129z" />
<glyph unicode="&#xfe;" horiz-adv-x="1280" d="M14 -266h176v1489h-161v168h354v-576h4q131 168 336 168q207 0 340 -141.5t133 -364.5q0 -215 -137 -360.5t-338 -145.5q-195 0 -338 148v-385h186v-168h-555v168zM379 471q0 -141 86 -233.5t219 -92.5q139 0 226 94.5t87 247.5q0 141 -86 234.5t-217 93.5 q-135 0 -225 -98.5t-90 -245.5z" />
<glyph unicode="&#xff;" horiz-adv-x="1153" d="M16 799v168h480v-168h-115l209 -535l205 535h-129v168h469v-168h-144l-479 -1233h-324v168h191l117 284l-318 781h-162zM281 1255.5q0 47.5 33.5 81t80.5 33.5t81 -33.5t34 -81t-34 -81t-81 -33.5t-80.5 33.5t-33.5 81zM643 1255.5q0 47.5 34 81t81 33.5t80.5 -33.5 t33.5 -81t-33.5 -81t-80.5 -33.5t-81 33.5t-34 81z" />
<glyph unicode="&#x152;" horiz-adv-x="2091" d="M82 692q0 76 16.5 158t67.5 182.5t129 177t215 129t313 52.5h1200v-418h-172v244h-596v-408h517v-174h-517v-461h596v252h172v-426h-1230q-324 0 -517.5 203.5t-193.5 488.5zM295 696q0 -102 25.5 -189t84 -165t169 -123t264.5 -45h209v1043h-224q-268 0 -398 -146 t-130 -375z" />
<glyph unicode="&#x153;" horiz-adv-x="1941" d="M72 483q0 236 156.5 374t342.5 138q231 0 392 -196q143 197 387 196q211 0 361.5 -154.5t150.5 -404.5h-801q10 -129 98 -213t217 -84q188 0 318 158l168 -72q-70 -123 -204 -188.5t-280 -65.5q-262 0 -415 197q-143 -197 -383 -197q-217 0 -362.5 146.5t-145.5 365.5z M276 479q0 -139 86.5 -231t215.5 -92t211.5 93t82.5 236q0 135 -86 226.5t-213 91.5t-212 -92.5t-85 -231.5zM1067 575h580q-23 113 -106 182.5t-195 69.5q-109 0 -182.5 -66.5t-96.5 -185.5z" />
<glyph unicode="&#x178;" horiz-adv-x="1323" d="M-20 1217v174h571v-174h-174l305 -429l281 429h-175v174h555v-174h-184l-387 -584v-459h191v-174h-586v174h186v459l-413 584h-170zM367 1679q0 47 33.5 81t80.5 34t81 -34t34 -81t-34 -80.5t-81 -33.5t-80.5 33.5t-33.5 80.5zM729 1679q0 47 34 81t81 34t80.5 -34 t33.5 -81t-33.5 -80.5t-80.5 -33.5t-81 33.5t-34 80.5z" />
<glyph unicode="&#x2c6;" horiz-adv-x="681" d="M37 1098l168 313h266l174 -313h-141l-166 176l-166 -176h-135z" />
<glyph unicode="&#x2dc;" horiz-adv-x="681" d="M10 1128q0 135 51.5 202t131.5 67q59 0 164.5 -61.5t131.5 -61.5q70 0 72 117h111q0 -129 -47 -203t-136 -74q-68 0 -172 62.5t-135 62.5q-57 0 -57 -111h-115z" />
<glyph unicode="&#x2013;" horiz-adv-x="1024" d="M-12 424v174h1048v-174h-1048z" />
<glyph unicode="&#x2014;" horiz-adv-x="2048" d="M-12 424v174h2072v-174h-2072z" />
<glyph unicode="&#x2018;" horiz-adv-x="598" d="M176 868v246q0 139 56.5 207t189.5 70v-103q-68 -16 -95.5 -54t-27.5 -120h123v-246h-246z" />
<glyph unicode="&#x2019;" horiz-adv-x="598" d="M176 868v103q68 16 95.5 54t27.5 120h-123v246h246v-246q0 -139 -56.5 -207t-189.5 -70z" />
<glyph unicode="&#x201a;" horiz-adv-x="598" d="M176 0v246h246v-246q0 -139 -56.5 -206.5t-189.5 -69.5v102q68 16 95.5 54t27.5 120h-123z" />
<glyph unicode="&#x201c;" horiz-adv-x="1067" d="M164 868v246q0 139 56 207t190 70v-103q-68 -16 -95.5 -54t-27.5 -120h123v-246h-246zM659 868v246q0 139 56.5 207t189.5 70v-103q-68 -16 -95.5 -54t-27.5 -120h123v-246h-246z" />
<glyph unicode="&#x201d;" horiz-adv-x="1067" d="M162 868v103q68 16 95.5 54t27.5 120h-123v246h246v-246q0 -139 -56.5 -207t-189.5 -70zM657 868v103q68 16 95.5 54t27.5 120h-123v246h246v-246q0 -139 -56.5 -207t-189.5 -70z" />
<glyph unicode="&#x201e;" horiz-adv-x="1067" d="M162 0v246h246v-246q0 -139 -56.5 -206.5t-189.5 -69.5v102q68 16 95.5 54t27.5 120h-123zM657 0v246h246v-246q0 -139 -56 -206.5t-190 -69.5v102q68 16 95.5 54t27.5 120h-123z" />
<glyph unicode="&#x2022;" horiz-adv-x="724" d="M113 696.5q0 104.5 72.5 177t177 72.5t178 -72.5t73.5 -177t-73.5 -178.5t-178 -74t-177 74t-72.5 178.5z" />
<glyph unicode="&#x2026;" horiz-adv-x="2048" d="M219 0v246h246v-246h-246zM901 0v246h246v-246h-246zM1583 0v246h246v-246h-246z" />
<glyph unicode="&#x2039;" horiz-adv-x="598" d="M55 485l303 486h195l-293 -486l293 -485h-195z" />
<glyph unicode="&#x203a;" horiz-adv-x="598" d="M45 0l293 485l-293 486h195l303 -486l-303 -485h-195z" />
<glyph unicode="&#x20ac;" horiz-adv-x="1110" d="M68 483v152h118v59q0 55 2 70h-120v151h131q59 498 495 498q145 0 217 -96v86h181v-414h-181q-14 123 -73 191q-57 70 -146 69q-127 0 -196 -80q-70 -84 -90 -254h358v-151h-369l-2 -64l2 -65h369v-152h-354q49 -338 303 -338q84 0 145 74q61 70 90 191l182 -80 q-35 -164 -145 -256q-109 -96 -287 -97q-436 0 -499 506h-131z" />
<glyph unicode="&#x2122;" horiz-adv-x="2048" d="M227 1270v121h664v-121h-264v-695h-135v695h-265zM985 575v816h201l203 -652h4l196 652h201v-816h-125v685h-4l-209 -685h-123l-215 685h-4v-685h-125z" />
<glyph unicode="&#xe000;" horiz-adv-x="965" d="M0 965h965v-965h-965v965z" />
<glyph unicode="&#xfb01;" d="M61 0v168h154v631h-154v168h154v174q0 137 73.5 207.5t184.5 70.5q102 0 168 -58t82 -165l-168 -27q-8 94 -74 95q-74 0 -73 -105v-192h583v-799h154v-168h-500v168h154v631h-391v-631h153v-168h-500zM782 1296q0 47 34 81t81 34t81 -34t34 -81t-34 -80.5t-81 -33.5 t-81 33.5t-34 80.5z" />
<glyph unicode="&#xfb02;" d="M61 0v168h154v631h-154v168h154v174q0 137 73.5 207.5t184.5 70.5q80 0 121 -28h397v-1223h154v-168h-500v168h154v1055l-242 -23q-18 63 -76 64q-74 0 -73 -105v-192h163v-168h-163v-631h153v-168h-500z" />
<glyph unicode="&#xfb03;" horiz-adv-x="1794" d="M1245 0v168h154v631h-154v168h346v-799h154v-168h-500zM1376 1296q0 47 34 81t81 34t81 -34t34 -81t-34 -80.5t-81 -33.5t-81 33.5t-34 80.5zM666 799v168h141v174q0 137 73.5 207.5t184.5 70.5q102 0 167.5 -58t82.5 -165l-168 -27q-8 94 -74 95q-74 0 -74 -105v-192 h164v-168h-164v-631h187v-168h-516v168h137v631h-141zM68 799v168h141v174q0 137 73.5 207.5t184.5 70.5q102 0 167.5 -58t82.5 -165l-168 -27q-8 94 -74 95q-74 0 -74 -105v-192h164v-168h-164v-631h187v-168h-516v168h137v631h-141z" />
<glyph unicode="&#xfb04;" horiz-adv-x="1794" d="M1245 0v168h176v1055h-172v168h365v-1223h149v-168h-518zM666 799v168h141v174q0 137 73.5 207.5t184.5 70.5q102 0 167.5 -58t82.5 -165l-168 -27q-8 94 -74 95q-74 0 -74 -105v-192h164v-168h-164v-631h187v-168h-516v168h137v631h-141zM68 799v168h141v174 q0 137 73.5 207.5t184.5 70.5q102 0 167.5 -58t82.5 -165l-168 -27q-8 94 -74 95q-74 0 -74 -105v-192h164v-168h-164v-631h187v-168h-516v168h137v631h-141z" />
</font>
</defs>
</svg>
